<svg width="34" height="34" viewBox="0 0 34 34" fill="none" xmlns="http://www.w3.org/2000/svg">
<path d="M13.4583 4.25C15.9005 4.25 18.2427 5.22016 19.9696 6.94706C21.6965 8.67396 22.6667 11.0161 22.6667 13.4583C22.6667 15.7392 21.8308 17.8358 20.4567 19.4508L20.8392 19.8333H21.9583L29.0417 26.9167L26.9167 29.0417L19.8333 21.9583V20.8392L19.4508 20.4567C17.7799 21.8829 15.6552 22.6665 13.4583 22.6667C11.0161 22.6667 8.67396 21.6965 6.94706 19.9696C5.22016 18.2427 4.25 15.9005 4.25 13.4583C4.25 11.0161 5.22016 8.67396 6.94706 6.94706C8.67396 5.22016 11.0161 4.25 13.4583 4.25ZM13.4583 7.08333C9.91667 7.08333 7.08333 9.91667 7.08333 13.4583C7.08333 17 9.91667 19.8333 13.4583 19.8333C17 19.8333 19.8333 17 19.8333 13.4583C19.8333 9.91667 17 7.08333 13.4583 7.08333Z" fill="white" fill-opacity="0.6"/>
</svg>
